# xmcd
#
# Track frame offsets:
#  225
#  13811
#  28572
#  41157
#  53850
#  68520
#  84336
#  96430
#  107484
#  119901
#  134711
#  153045
#  165411
#  179251
#  191535
#  202081
#  216750
#  231573
#
# Disc length: 3209 seconds
#
# Revision: 3
# Processed by: cddbd v1.5.1PL2 Copyright (c) Steve Scherf et al.
# Submitted via: Collectorz.com_Music_Collector 6.11
#
DISCID=010c8612
DTITLE=Most Famous Hits - The Very Best of Blues [CD1)
DYEAR=1900
DGENRE=Blues
TTITLE0=Joe Turner - Shake, Rattle And Roll
TTITLE1=Richard Berry - Doin' It
TTITLE2=Ray Charles - Goin' Down Slow
TTITLE3=Louis Jordan - Cho Choo Ch'Boogie
TTITLE4=Bishop "Gatemouth" Moore - Ain't Mad At You, Perry Baby
TTITLE5=Eddie Cleanhead Vinson - I'm The Midnight Creeper
TTITLE6=Little Water Juke - My Babe
TTITLE7=Bo Diddley - Bo Diddley
TTITLE8=Joe Liggings and The Honeydrippers - Pink Champagne
TTITLE9=Pee Wee Crayton - Texas Hop
TTITLE10=Charles Brown - Driftin' Blues
TTITLE11=Amos Milburn - Chicken Sack Boogie
TTITLE12=Roy Milton - R.M. Blues
TTITLE13=Johnny Otis - Willy And Hand Jive
TTITLE14=Ellta James - Tell Mama
TTITLE15=Muddy Waters - Baby, Please Don't Go
TTITLE16=Gordon Lightfoot - Early Morning Rain
TTITLE17=Commander Cody and His Lost Planet Airmen - Diggy Liggy Lo
EXTD=
EXTT0=
EXTT1=
EXTT2=
EXTT3=
EXTT4=
EXTT5=
EXTT6=
EXTT7=
EXTT8=
EXTT9=
EXTT10=
EXTT11=
EXTT12=
EXTT13=
EXTT14=
EXTT15=
EXTT16=
EXTT17=
PLAYORDER=
